<svg width="247" height="242" viewBox="0 0 247 242" fill="none" xmlns="http://www.w3.org/2000/svg">
<g filter="url(#filter0_d_2302_13)">
<path d="M2 117.769C2 112.045 8.49721 108.741 13.1232 112.113L120.106 190.091C122.575 191.891 125.927 191.881 128.386 190.066L233.843 112.239C238.465 108.828 245 112.127 245 117.871V145.975C245 148.192 243.949 150.279 242.168 151.599L128.457 235.871C125.965 237.719 122.554 237.705 120.077 235.838L4.78751 148.968C3.03222 147.646 2 145.576 2 143.378V117.769Z" fill="#FFDD02"/>
<path d="M124.255 7.90149C124.255 2.15141 117.706 -1.14616 113.086 2.27779L9.57165 79.002C5.80061 81.7971 5.79504 87.4386 9.56053 90.2411L120.049 172.474C122.542 174.33 125.96 174.319 128.441 172.449L228.292 97.2045C233.658 93.1608 230.799 84.6141 224.08 84.6141H131.255C127.389 84.6141 124.255 81.4801 124.255 77.6141V7.90149Z" fill="#EC7A01"/>
</g>
<defs>
<filter id="filter0_d_2302_13" x="0" y="0.888916" width="247" height="240.359" filterUnits="userSpaceOnUse" color-interpolation-filters="sRGB">
<feFlood flood-opacity="0" result="BackgroundImageFix"/>
<feColorMatrix in="SourceAlpha" type="matrix" values="0 0 0 0 0 0 0 0 0 0 0 0 0 0 0 0 0 0 127 0" result="hardAlpha"/>
<feOffset dy="2"/>
<feGaussianBlur stdDeviation="1"/>
<feComposite in2="hardAlpha" operator="out"/>
<feColorMatrix type="matrix" values="0 0 0 0 0 0 0 0 0 0 0 0 0 0 0 0 0 0 0.25 0"/>
<feBlend mode="normal" in2="BackgroundImageFix" result="effect1_dropShadow_2302_13"/>
<feBlend mode="normal" in="SourceGraphic" in2="effect1_dropShadow_2302_13" result="shape"/>
</filter>
</defs>
</svg>
